<?xml version="1.0" encoding="utf-8"?>
<!-- Generator: Adobe Illustrator 16.0.0, SVG Export Plug-In . SVG Version: 6.00 Build 0)  -->
<!DOCTYPE svg PUBLIC "-//W3C//DTD SVG 1.1//EN" "http://www.w3.org/Graphics/SVG/1.1/DTD/svg11.dtd">
<svg version="1.1" id="Layer_1" xmlns="http://www.w3.org/2000/svg" xmlns:xlink="http://www.w3.org/1999/xlink" x="0px" y="0px"
	 width="140px" height="34px" viewBox="0 0 140 34" enable-background="new 0 0 140 34" xml:space="preserve">
<g>
	<g>
		<g>
			<path fill="#FFFFFF" d="M54.991,24.071c0,0.193-0.045,0.29-0.136,0.29c-0.23,0-0.527-0.018-0.89-0.052
				c-0.406-0.035-0.748-0.052-1.025-0.052c-0.271,0-0.607,0.017-1.009,0.052c-0.361,0.034-0.658,0.052-0.891,0.052
				c-0.09,0-0.135-0.097-0.135-0.29c0-0.173,0.045-0.267,0.135-0.279c0.481-0.07,0.793-0.21,0.938-0.42
				c0.145-0.211,0.217-0.654,0.217-1.331v-9.617c0-0.559-0.058-0.925-0.17-1.098c-0.114-0.172-0.373-0.286-0.78-0.341
				c-0.091-0.014-0.136-0.103-0.136-0.265c0-0.169,0.045-0.254,0.136-0.254c0.594-0.187,1.079-0.385,1.458-0.596
				c0.379-0.21,0.616-0.388,0.712-0.534c0.057-0.076,0.118-0.113,0.187-0.113c0.158,0,0.237,0.055,0.237,0.166
				c-0.09,1.547-0.136,2.749-0.136,3.605v9.045c0,0.678,0.071,1.121,0.212,1.332c0.142,0.21,0.455,0.35,0.941,0.42
				C54.946,23.805,54.991,23.898,54.991,24.071z"/>
		</g>
		<g>
			<path fill="#FFFFFF" d="M62.367,18.497c0,0.193-0.103,0.29-0.306,0.29h-4.646c-0.033,0.373-0.051,0.76-0.051,1.161
				c0,1.111,0.217,1.966,0.648,2.563c0.433,0.597,1.047,0.896,1.844,0.896c0.401,0,0.805-0.132,1.212-0.394
				c0.407-0.263,0.735-0.599,0.983-1.006l0.043-0.02c0.051,0,0.101,0.037,0.148,0.113s0.071,0.166,0.071,0.269
				c0,0.146-0.181,0.448-0.542,0.908c-0.362,0.459-0.755,0.809-1.179,1.051c-0.424,0.241-0.868,0.362-1.331,0.362
				c-1.017,0-1.874-0.456-2.568-1.367c-0.695-0.912-1.042-2.03-1.042-3.357c0-1.354,0.339-2.5,1.021-3.44
				c0.681-0.938,1.543-1.409,2.589-1.409c0.877,0,1.612,0.351,2.208,1.052C62.069,16.872,62.367,17.647,62.367,18.497z
				 M60.824,17.585c0-0.518-0.146-0.948-0.437-1.29c-0.291-0.342-0.665-0.514-1.124-0.514c-0.435,0-0.812,0.223-1.131,0.669
				c-0.319,0.445-0.536,1.031-0.648,1.756l2.355-0.083c0.357-0.007,0.609-0.048,0.76-0.125
				C60.749,17.923,60.824,17.786,60.824,17.585z"/>
		</g>
		<g>
			<path fill="#FFFFFF" d="M75.219,20.217c0,1.374-0.334,2.469-1.003,3.279c-0.667,0.812-1.569,1.217-2.706,1.217
				c-0.505,0-1.107-0.11-1.809-0.331c-0.64-0.206-1.162-0.311-1.57-0.311c-0.033-1.175-0.102-2.349-0.203-3.522
				c0-0.111,0.085-0.166,0.254-0.166c0.118,0,0.192,0.055,0.221,0.166c0.306,1.284,0.696,2.189,1.172,2.714
				c0.475,0.525,1.142,0.787,2,0.787c0.684,0,1.213-0.241,1.589-0.724c0.375-0.485,0.563-1.161,0.563-2.031
				c0-0.56-0.165-1.079-0.492-1.56c-0.328-0.481-1.026-1.1-2.094-1.86c-1.227-0.863-2.029-1.596-2.407-2.196
				c-0.379-0.601-0.568-1.268-0.568-2c0-1.125,0.341-2.077,1.022-2.854c0.683-0.777,1.546-1.166,2.594-1.166
				c0.396,0,0.851,0.065,1.366,0.197c0.48,0.118,0.896,0.176,1.247,0.176c0.069,1.216,0.159,2.287,0.272,3.212
				c0,0.11-0.074,0.166-0.221,0.166c-0.158,0-0.245-0.056-0.263-0.166c-0.187-1.037-0.47-1.783-0.85-2.238s-0.903-0.684-1.573-0.684
				c-0.637,0-1.142,0.228-1.517,0.684s-0.562,1.071-0.562,1.844c0,0.491,0.156,0.958,0.471,1.404
				c0.315,0.446,0.996,1.042,2.046,1.787c1.241,0.885,2.054,1.624,2.439,2.218C75.025,18.853,75.219,19.505,75.219,20.217z"/>
		</g>
		<g>
			<path fill="#FFFFFF" d="M85.162,24.091c0,0.194-0.046,0.291-0.137,0.291c-0.226,0-0.506-0.021-0.839-0.062
				c-0.363-0.041-0.68-0.062-0.952-0.062c-0.284,0-0.61,0.021-0.979,0.062c-0.335,0.042-0.615,0.062-0.843,0.062
				c-0.091,0-0.136-0.097-0.136-0.291c0-0.172,0.045-0.265,0.136-0.279c0.391-0.054,0.647-0.189,0.77-0.404
				c0.121-0.213,0.183-0.663,0.183-1.347v-3.46c0-1.492-0.556-2.238-1.666-2.238c-0.702,0-1.309,0.346-1.817,1.036v4.662
				c0,0.623,0.072,1.054,0.221,1.296c0.146,0.241,0.436,0.395,0.866,0.455c0.09,0.015,0.136,0.107,0.136,0.279
				c0,0.194-0.046,0.291-0.136,0.291c-0.231,0-0.532-0.021-0.904-0.062c-0.418-0.041-0.765-0.062-1.041-0.062
				c-0.282,0-0.604,0.021-0.965,0.062c-0.322,0.042-0.599,0.062-0.831,0.062c-0.09,0-0.135-0.097-0.135-0.291
				c0-0.172,0.045-0.265,0.135-0.279c0.476-0.062,0.783-0.198,0.924-0.408c0.142-0.211,0.212-0.657,0.212-1.341v-9.618
				c0-0.559-0.054-0.924-0.165-1.098c-0.11-0.172-0.365-0.286-0.766-0.341c-0.092-0.014-0.138-0.102-0.138-0.264
				c0-0.183,0.046-0.275,0.137-0.275c0.963-0.276,1.675-0.643,2.138-1.098c0.085-0.083,0.154-0.124,0.211-0.124
				c0.158,0,0.236,0.055,0.236,0.166c-0.09,1.133-0.135,2.334-0.135,3.606v3.512c0.811-0.939,1.609-1.409,2.398-1.409
				c0.806,0,1.438,0.269,1.9,0.808c0.462,0.539,0.693,1.264,0.693,2.176v3.957c0,0.678,0.072,1.121,0.217,1.332
				s0.456,0.351,0.936,0.42C85.116,23.826,85.162,23.919,85.162,24.091z"/>
		</g>
		<g>
			<path fill="#FFFFFF" d="M92.528,18.497c0,0.193-0.103,0.29-0.306,0.29h-4.646c-0.034,0.373-0.05,0.76-0.05,1.161
				c0,1.111,0.215,1.966,0.647,2.563c0.432,0.597,1.047,0.896,1.844,0.896c0.4,0,0.806-0.132,1.212-0.394
				c0.407-0.263,0.735-0.599,0.984-1.006l0.042-0.02c0.051,0,0.101,0.037,0.148,0.113s0.071,0.166,0.071,0.269
				c0,0.146-0.181,0.448-0.542,0.908c-0.361,0.459-0.755,0.809-1.179,1.051c-0.424,0.241-0.867,0.362-1.331,0.362
				c-1.017,0-1.873-0.456-2.568-1.367c-0.695-0.912-1.042-2.03-1.042-3.357c0-1.354,0.34-2.5,1.021-3.44
				c0.68-0.938,1.543-1.409,2.59-1.409c0.875,0,1.611,0.351,2.208,1.052C92.229,16.872,92.528,17.647,92.528,18.497z M90.985,17.585
				c0-0.518-0.146-0.948-0.437-1.29c-0.291-0.342-0.666-0.514-1.123-0.514c-0.436,0-0.813,0.223-1.132,0.669
				c-0.319,0.445-0.535,1.031-0.648,1.756l2.356-0.083c0.356-0.007,0.609-0.048,0.759-0.125
				C90.91,17.923,90.985,17.786,90.985,17.585z"/>
		</g>
		<g>
			<path fill="#FFFFFF" d="M99.462,16.155c0,0.276-0.07,0.511-0.208,0.705c-0.139,0.194-0.307,0.29-0.504,0.29
				c-0.249,0-0.495-0.1-0.738-0.3c-0.192-0.159-0.358-0.238-0.5-0.238c-0.367,0-0.745,0.262-1.136,0.787v4.662
				c0,0.602,0.085,1.021,0.255,1.26c0.169,0.238,0.53,0.402,1.085,0.492c0.09,0.014,0.135,0.106,0.135,0.279
				c0,0.193-0.045,0.29-0.135,0.29c-0.232,0-0.561-0.021-0.984-0.062c-0.466-0.041-0.838-0.062-1.114-0.062
				c-0.281,0-0.621,0.021-1.021,0.062c-0.362,0.042-0.658,0.062-0.89,0.062c-0.09,0-0.136-0.097-0.136-0.29
				c0-0.173,0.046-0.266,0.136-0.279c0.491-0.076,0.806-0.217,0.944-0.425c0.139-0.206,0.208-0.648,0.208-1.324v-3.828
				c0-0.551-0.058-0.913-0.173-1.085c-0.116-0.173-0.375-0.287-0.776-0.342c-0.091,0-0.136-0.092-0.136-0.275
				c0-0.169,0.045-0.254,0.136-0.254c0.56-0.172,1.021-0.363,1.384-0.575c0.362-0.21,0.601-0.392,0.713-0.544
				c0.067-0.083,0.134-0.124,0.202-0.124c0.157,0,0.236,0.055,0.236,0.165l-0.068,1.306c0.451-0.511,0.841-0.87,1.166-1.077
				s0.647-0.311,0.97-0.311c0.261,0,0.484,0.104,0.67,0.311C99.369,15.637,99.462,15.879,99.462,16.155z"/>
		</g>
		<g>
			<path fill="#FFFFFF" d="M112.406,15.741c0,0.172-0.045,0.266-0.136,0.28c-0.463,0.083-0.781,0.231-0.954,0.445
				c-0.172,0.214-0.377,0.649-0.614,1.306l-2.434,6.776c-0.05,0.11-0.123,0.166-0.22,0.166c-0.09,0-0.153-0.056-0.187-0.166
				l-1.735-5.432l-1.986,5.432c-0.057,0.11-0.13,0.166-0.22,0.166c-0.103,0-0.174-0.056-0.212-0.166l-2.281-6.776
				c-0.197-0.598-0.412-1.027-0.645-1.288c-0.231-0.261-0.542-0.415-0.933-0.463c-0.09-0.014-0.135-0.108-0.135-0.285
				c0-0.189,0.044-0.285,0.132-0.285c0.226,0,0.503,0.021,0.831,0.062c0.369,0.041,0.69,0.062,0.966,0.062
				c0.269,0,0.584-0.021,0.947-0.062c0.332-0.042,0.615-0.062,0.847-0.062c0.091,0,0.136,0.095,0.136,0.285
				c0,0.177-0.045,0.271-0.136,0.285c-0.282,0.043-0.479,0.116-0.59,0.219s-0.167,0.266-0.167,0.487
				c0,0.221,0.078,0.588,0.231,1.102l1.375,4.083l1.467-4.062l-0.056-0.327c-0.027-0.076-0.062-0.185-0.101-0.324
				c-0.142-0.465-0.264-0.77-0.365-0.913c-0.101-0.142-0.285-0.231-0.551-0.266c-0.091-0.013-0.136-0.108-0.136-0.285
				c0-0.189,0.045-0.284,0.136-0.284c0.204,0,0.45,0.021,0.737,0.062c0.308,0.041,0.575,0.062,0.805,0.062
				c0.268,0,0.583-0.021,0.943-0.062c0.343-0.042,0.63-0.062,0.862-0.062c0.09,0,0.136,0.097,0.136,0.29
				c0,0.173-0.046,0.266-0.136,0.28c-0.591,0.098-0.888,0.452-0.888,1.061c0,0.28,0.031,0.519,0.091,0.715l1.229,3.995l1.345-3.848
				c0.164-0.442,0.247-0.811,0.247-1.106c0-0.463-0.255-0.734-0.765-0.815c-0.096-0.014-0.145-0.107-0.145-0.28
				c0-0.193,0.046-0.29,0.136-0.29c0.243,0,0.513,0.021,0.809,0.062c0.289,0.041,0.548,0.062,0.778,0.062
				c0.123,0,0.309-0.017,0.557-0.052c0.336-0.048,0.615-0.072,0.84-0.072C112.359,15.451,112.406,15.548,112.406,15.741z"/>
		</g>
		<g>
			<path fill="#FFFFFF" d="M120.366,19.969c0,1.374-0.367,2.505-1.1,3.393s-1.682,1.331-2.846,1.331
				c-1.165,0-2.117-0.445-2.852-1.336c-0.736-0.892-1.104-2.02-1.104-3.388c0-1.389,0.371-2.543,1.112-3.466
				c0.74-0.922,1.688-1.383,2.843-1.383c1.16,0,2.107,0.459,2.842,1.378C119.999,17.416,120.366,18.573,120.366,19.969z
				 M118.653,19.948c0-1.265-0.198-2.275-0.598-3.031c-0.397-0.757-0.944-1.135-1.639-1.135c-0.69,0-1.236,0.38-1.637,1.14
				c-0.401,0.76-0.602,1.769-0.602,3.026c0,1.25,0.197,2.242,0.593,2.978c0.396,0.737,0.943,1.104,1.646,1.104
				c0.7,0,1.248-0.365,1.644-1.094S118.653,21.211,118.653,19.948z"/>
		</g>
		<g>
			<path fill="#FFFFFF" d="M129.454,19.969c0,1.374-0.366,2.505-1.099,3.393c-0.733,0.888-1.683,1.331-2.849,1.331
				c-1.165,0-2.116-0.445-2.851-1.336c-0.735-0.892-1.104-2.02-1.104-3.388c0-1.389,0.37-2.543,1.111-3.466
				c0.742-0.922,1.689-1.383,2.843-1.383c1.16,0,2.108,0.459,2.844,1.378S129.454,18.573,129.454,19.969z M127.741,19.948
				c0-1.265-0.199-2.275-0.597-3.031c-0.399-0.757-0.946-1.135-1.641-1.135c-0.689,0-1.235,0.38-1.637,1.14
				c-0.401,0.76-0.602,1.769-0.602,3.026c0,1.25,0.197,2.242,0.593,2.978c0.396,0.737,0.944,1.104,1.646,1.104
				c0.7,0,1.249-0.365,1.645-1.094S127.741,21.211,127.741,19.948z"/>
		</g>
		<g>
			<path fill="#FFFFFF" d="M139.135,23.693c0,0.148-0.047,0.229-0.136,0.243c-0.322,0.049-0.697,0.146-1.121,0.29
				c-0.426,0.145-0.758,0.289-0.996,0.436c-0.125,0.074-0.216,0.114-0.272,0.114c-0.092,0-0.137-0.056-0.137-0.166l0.067-1.12
				c-0.599,0.802-1.361,1.202-2.288,1.202c-0.978,0-1.81-0.459-2.498-1.377c-0.686-0.92-1.029-2.021-1.029-3.307
				c0-1.456,0.38-2.636,1.141-3.537c0.76-0.901,1.714-1.353,2.86-1.353c0.655,0,1.26,0.249,1.814,0.746v-3.443
				c0-0.558-0.057-0.923-0.17-1.096c-0.113-0.172-0.372-0.286-0.779-0.341c-0.09-0.014-0.136-0.103-0.136-0.264
				c0-0.183,0.046-0.275,0.136-0.275c0.533-0.151,0.994-0.334,1.386-0.549s0.655-0.404,0.791-0.57
				c0.057-0.069,0.116-0.103,0.179-0.103c0.159,0,0.238,0.055,0.238,0.166c-0.091,1.504-0.135,2.706-0.135,3.603v9.121
				c0,0.478,0.056,0.796,0.168,0.958c0.114,0.162,0.374,0.277,0.78,0.347C139.088,23.418,139.135,23.51,139.135,23.693z
				 M136.54,22.587v-5.312c0-0.359-0.171-0.698-0.513-1.016c-0.342-0.317-0.713-0.477-1.115-0.477c-1.649,0-2.475,1.417-2.475,4.254
				c0,1.12,0.197,2.05,0.593,2.79c0.396,0.741,0.916,1.11,1.56,1.11c0.368,0,0.701-0.102,1.001-0.307
				C135.89,23.427,136.207,23.078,136.54,22.587z"/>
		</g>
	</g>
	<g>
		<g>
			<g>
				<path fill="#FFFFFF" d="M2.865,17.083c0,0.095-0.022,0.143-0.066,0.143c-0.113,0-0.259-0.008-0.436-0.025
					c-0.199-0.017-0.367-0.026-0.502-0.026c-0.133,0-0.298,0.009-0.494,0.026c-0.177,0.017-0.322,0.025-0.436,0.025
					c-0.044,0-0.066-0.048-0.066-0.143c0-0.084,0.022-0.129,0.066-0.137c0.235-0.034,0.388-0.102,0.458-0.205
					c0.071-0.103,0.106-0.32,0.106-0.651v-4.706c0-0.273-0.028-0.453-0.084-0.537c-0.055-0.084-0.182-0.14-0.381-0.167
					c-0.044-0.007-0.066-0.05-0.066-0.129c0-0.083,0.022-0.125,0.066-0.125c0.29-0.091,0.528-0.188,0.714-0.291
					c0.185-0.104,0.301-0.19,0.348-0.261c0.028-0.038,0.059-0.056,0.092-0.056c0.077,0,0.116,0.027,0.116,0.081
					c-0.045,0.757-0.066,1.345-0.066,1.765v4.426c0,0.331,0.034,0.548,0.104,0.651c0.069,0.104,0.223,0.171,0.461,0.205
					C2.843,16.954,2.865,17,2.865,17.083z"/>
			</g>
			<g>
				<path fill="#FFFFFF" d="M6.474,14.356c0,0.095-0.05,0.142-0.149,0.142H4.051c-0.016,0.182-0.024,0.372-0.024,0.567
					c0,0.544,0.105,0.963,0.317,1.255c0.212,0.293,0.513,0.438,0.901,0.438c0.197,0,0.395-0.064,0.594-0.192
					s0.359-0.292,0.481-0.492l0.021-0.01c0.025,0,0.049,0.019,0.072,0.056s0.036,0.081,0.036,0.132c0,0.071-0.089,0.219-0.266,0.444
					s-0.369,0.396-0.577,0.515c-0.207,0.118-0.424,0.177-0.651,0.177c-0.497,0-0.916-0.223-1.257-0.669
					c-0.34-0.446-0.51-0.994-0.51-1.642c0-0.663,0.167-1.223,0.5-1.684c0.333-0.459,0.756-0.689,1.267-0.689
					c0.429,0,0.789,0.172,1.081,0.515S6.474,13.941,6.474,14.356z M5.719,13.91c0-0.253-0.071-0.464-0.214-0.631
					c-0.143-0.168-0.325-0.251-0.549-0.251c-0.213,0-0.397,0.109-0.554,0.327c-0.157,0.218-0.263,0.504-0.318,0.859l1.154-0.041
					c0.174-0.003,0.297-0.023,0.371-0.061C5.683,14.076,5.719,14.008,5.719,13.91z"/>
			</g>
			<g>
				<path fill="#FFFFFF" d="M12.763,15.198c0,0.672-0.164,1.208-0.49,1.604c-0.327,0.397-0.769,0.596-1.325,0.596
					c-0.246,0-0.541-0.054-0.885-0.162c-0.312-0.102-0.569-0.153-0.769-0.153c-0.016-0.574-0.05-1.149-0.1-1.723
					c0-0.055,0.042-0.082,0.125-0.082c0.058,0,0.094,0.027,0.107,0.082c0.149,0.628,0.341,1.071,0.573,1.328
					c0.233,0.257,0.56,0.386,0.979,0.386c0.334,0,0.593-0.119,0.777-0.355c0.184-0.237,0.275-0.568,0.275-0.994
					c0-0.274-0.08-0.528-0.24-0.763c-0.161-0.235-0.503-0.538-1.024-0.91c-0.601-0.422-0.993-0.78-1.179-1.075
					c-0.186-0.294-0.278-0.62-0.278-0.979c0-0.551,0.167-1.017,0.501-1.396c0.333-0.38,0.757-0.571,1.269-0.571
					c0.194,0,0.417,0.032,0.669,0.096c0.235,0.058,0.438,0.086,0.61,0.086c0.033,0.596,0.078,1.119,0.133,1.572
					c0,0.054-0.035,0.081-0.107,0.081c-0.078,0-0.12-0.027-0.129-0.081c-0.092-0.507-0.229-0.872-0.416-1.095
					c-0.186-0.223-0.442-0.334-0.77-0.334c-0.312,0-0.559,0.111-0.741,0.334c-0.185,0.223-0.275,0.524-0.275,0.902
					c0,0.24,0.077,0.469,0.23,0.687c0.154,0.218,0.487,0.51,1.001,0.875c0.607,0.433,1.005,0.794,1.194,1.085
					C12.668,14.53,12.763,14.85,12.763,15.198z"/>
			</g>
			<g>
				<path fill="#FFFFFF" d="M17.627,17.094c0,0.095-0.021,0.143-0.065,0.143c-0.111,0-0.248-0.01-0.411-0.031
					c-0.178-0.02-0.333-0.031-0.466-0.031c-0.139,0-0.298,0.011-0.479,0.031c-0.163,0.021-0.301,0.031-0.412,0.031
					c-0.045,0-0.066-0.047-0.066-0.143c0-0.084,0.021-0.129,0.066-0.137c0.191-0.027,0.316-0.093,0.376-0.198
					c0.06-0.104,0.089-0.325,0.089-0.659v-1.693c0-0.73-0.271-1.095-0.814-1.095c-0.344,0-0.64,0.169-0.89,0.507V16.1
					c0,0.305,0.036,0.516,0.108,0.634s0.214,0.193,0.424,0.223c0.045,0.007,0.066,0.053,0.066,0.137
					c0,0.095-0.021,0.143-0.065,0.143c-0.113,0-0.262-0.01-0.443-0.031c-0.204-0.02-0.374-0.031-0.509-0.031
					c-0.139,0-0.296,0.011-0.473,0.031c-0.157,0.021-0.293,0.031-0.406,0.031c-0.045,0-0.066-0.047-0.066-0.143
					c0-0.084,0.021-0.129,0.066-0.137c0.231-0.03,0.383-0.097,0.452-0.2s0.104-0.321,0.104-0.656v-4.707
					c0-0.273-0.026-0.452-0.081-0.537c-0.054-0.084-0.179-0.14-0.375-0.167c-0.045-0.007-0.066-0.05-0.066-0.129
					c0-0.09,0.021-0.135,0.066-0.135c0.472-0.135,0.82-0.314,1.046-0.538c0.041-0.041,0.076-0.061,0.104-0.061
					c0.077,0,0.116,0.027,0.116,0.081c-0.045,0.555-0.066,1.143-0.066,1.765v1.719c0.396-0.459,0.788-0.689,1.173-0.689
					c0.395,0,0.704,0.131,0.931,0.396c0.227,0.264,0.339,0.618,0.339,1.064V16.1c0,0.331,0.036,0.548,0.106,0.651
					s0.223,0.171,0.458,0.205C17.605,16.964,17.627,17.01,17.627,17.094z"/>
			</g>
			<g>
				<path fill="#FFFFFF" d="M21.232,14.356c0,0.095-0.05,0.142-0.149,0.142H18.81c-0.017,0.182-0.024,0.372-0.024,0.567
					c0,0.544,0.105,0.963,0.317,1.255c0.211,0.293,0.512,0.438,0.902,0.438c0.195,0,0.394-0.064,0.593-0.192
					s0.359-0.292,0.481-0.492l0.021-0.01c0.025,0,0.049,0.019,0.073,0.056c0.022,0.037,0.034,0.081,0.034,0.132
					c0,0.071-0.088,0.219-0.266,0.444c-0.177,0.225-0.369,0.396-0.576,0.515s-0.424,0.177-0.651,0.177
					c-0.497,0-0.916-0.223-1.257-0.669c-0.34-0.446-0.51-0.994-0.51-1.642c0-0.663,0.166-1.223,0.5-1.684
					c0.333-0.459,0.755-0.689,1.267-0.689c0.429,0,0.789,0.172,1.081,0.515C21.086,13.561,21.232,13.941,21.232,14.356z
					 M20.478,13.91c0-0.253-0.071-0.464-0.214-0.631c-0.143-0.168-0.325-0.251-0.55-0.251c-0.212,0-0.397,0.109-0.554,0.327
					s-0.262,0.504-0.317,0.859l1.153-0.041c0.175-0.003,0.298-0.023,0.371-0.061C20.44,14.076,20.478,14.008,20.478,13.91z"/>
			</g>
			<g>
				<path fill="#FFFFFF" d="M24.625,13.21c0,0.135-0.034,0.25-0.102,0.345c-0.068,0.095-0.149,0.142-0.246,0.142
					c-0.122,0-0.243-0.049-0.361-0.146c-0.095-0.078-0.176-0.117-0.245-0.117c-0.18,0-0.364,0.128-0.556,0.385v2.282
					c0,0.294,0.042,0.499,0.125,0.616c0.082,0.117,0.259,0.197,0.53,0.241c0.045,0.007,0.066,0.052,0.066,0.137
					c0,0.095-0.021,0.142-0.066,0.142c-0.113,0-0.274-0.01-0.481-0.031c-0.229-0.02-0.41-0.03-0.545-0.03
					c-0.138,0-0.305,0.011-0.5,0.03c-0.177,0.021-0.322,0.031-0.436,0.031c-0.044,0-0.066-0.047-0.066-0.142
					c0-0.084,0.022-0.13,0.066-0.137c0.24-0.038,0.395-0.106,0.462-0.208c0.068-0.102,0.103-0.317,0.103-0.648v-1.874
					c0-0.27-0.029-0.447-0.085-0.531c-0.057-0.084-0.184-0.14-0.38-0.167c-0.044,0-0.066-0.045-0.066-0.135
					c0-0.083,0.022-0.124,0.066-0.124c0.273-0.085,0.499-0.179,0.677-0.282s0.294-0.192,0.349-0.266
					c0.033-0.041,0.066-0.061,0.099-0.061c0.078,0,0.116,0.027,0.116,0.081l-0.033,0.639c0.221-0.25,0.411-0.426,0.57-0.528
					c0.159-0.101,0.317-0.152,0.475-0.152c0.127,0,0.237,0.051,0.328,0.152C24.58,12.957,24.625,13.075,24.625,13.21z"/>
			</g>
			<g>
				<path fill="#FFFFFF" d="M30.959,13.008c0,0.084-0.021,0.13-0.066,0.137c-0.227,0.041-0.382,0.113-0.466,0.218
					c-0.085,0.104-0.185,0.317-0.302,0.639l-1.19,3.316c-0.024,0.054-0.061,0.081-0.107,0.081c-0.044,0-0.074-0.027-0.091-0.081
					l-0.85-2.658l-0.972,2.658c-0.028,0.054-0.063,0.081-0.107,0.081c-0.05,0-0.084-0.027-0.104-0.081l-1.115-3.316
					c-0.097-0.292-0.202-0.502-0.315-0.63s-0.266-0.203-0.456-0.227c-0.044-0.007-0.066-0.053-0.066-0.139
					c0-0.093,0.021-0.14,0.064-0.14c0.11,0,0.246,0.011,0.407,0.031c0.18,0.02,0.338,0.03,0.472,0.03c0.132,0,0.286-0.01,0.464-0.03
					c0.163-0.021,0.301-0.031,0.414-0.031c0.045,0,0.066,0.047,0.066,0.14c0,0.086-0.021,0.132-0.066,0.139
					c-0.139,0.021-0.234,0.057-0.288,0.107c-0.055,0.051-0.082,0.13-0.082,0.238s0.038,0.288,0.113,0.539l0.672,1.999l0.719-1.988
					l-0.027-0.16c-0.014-0.038-0.03-0.09-0.049-0.158c-0.069-0.228-0.13-0.377-0.18-0.447s-0.14-0.113-0.27-0.13
					c-0.044-0.007-0.065-0.053-0.065-0.14c0-0.093,0.021-0.139,0.065-0.139c0.101,0,0.22,0.01,0.361,0.031
					c0.15,0.02,0.281,0.03,0.394,0.03c0.131,0,0.285-0.01,0.462-0.03c0.167-0.021,0.308-0.031,0.422-0.031
					c0.044,0,0.066,0.047,0.066,0.142c0,0.084-0.022,0.13-0.066,0.137c-0.289,0.048-0.435,0.221-0.435,0.52
					c0,0.137,0.015,0.253,0.044,0.349l0.602,1.955l0.658-1.882c0.08-0.217,0.121-0.397,0.121-0.542c0-0.227-0.125-0.36-0.374-0.399
					c-0.047-0.007-0.07-0.053-0.07-0.137c0-0.095,0.022-0.143,0.066-0.143c0.118,0,0.25,0.011,0.396,0.031
					c0.141,0.02,0.268,0.03,0.381,0.03c0.06,0,0.151-0.008,0.271-0.025c0.165-0.023,0.302-0.036,0.411-0.036
					C30.937,12.866,30.959,12.913,30.959,13.008z"/>
			</g>
			<g>
				<path fill="#FFFFFF" d="M34.854,15.076c0,0.672-0.18,1.226-0.538,1.66c-0.358,0.435-0.822,0.651-1.393,0.651
					c-0.571,0-1.036-0.218-1.396-0.654c-0.36-0.436-0.54-0.988-0.54-1.657c0-0.68,0.182-1.245,0.544-1.696
					c0.362-0.452,0.826-0.677,1.392-0.677c0.567,0,1.03,0.225,1.391,0.674C34.675,13.828,34.854,14.394,34.854,15.076z
					 M34.017,15.066c0-0.618-0.097-1.113-0.293-1.483c-0.195-0.37-0.462-0.555-0.802-0.555c-0.338,0-0.604,0.186-0.801,0.558
					c-0.196,0.372-0.295,0.865-0.295,1.48c0,0.612,0.097,1.098,0.291,1.458c0.193,0.36,0.461,0.54,0.805,0.54
					c0.343,0,0.61-0.178,0.805-0.535C33.92,16.172,34.017,15.685,34.017,15.066z"/>
			</g>
			<g>
				<path fill="#FFFFFF" d="M39.301,15.076c0,0.672-0.179,1.226-0.537,1.66c-0.358,0.435-0.823,0.651-1.394,0.651
					s-1.035-0.218-1.396-0.654c-0.359-0.436-0.54-0.988-0.54-1.657c0-0.68,0.182-1.245,0.545-1.696
					c0.362-0.452,0.825-0.677,1.391-0.677c0.567,0,1.031,0.225,1.391,0.674C39.121,13.828,39.301,14.394,39.301,15.076z
					 M38.463,15.066c0-0.618-0.098-1.113-0.292-1.483c-0.195-0.37-0.463-0.555-0.803-0.555c-0.338,0-0.604,0.186-0.8,0.558
					c-0.197,0.372-0.296,0.865-0.296,1.48c0,0.612,0.097,1.098,0.291,1.458c0.193,0.36,0.462,0.54,0.805,0.54
					s0.611-0.178,0.805-0.535C38.366,16.172,38.463,15.685,38.463,15.066z"/>
			</g>
			<g>
				<path fill="#FFFFFF" d="M44.038,16.899c0,0.072-0.022,0.112-0.066,0.119c-0.157,0.023-0.341,0.071-0.549,0.142
					c-0.208,0.071-0.37,0.142-0.487,0.213c-0.062,0.037-0.105,0.056-0.133,0.056c-0.045,0-0.067-0.027-0.067-0.081l0.033-0.547
					c-0.293,0.392-0.666,0.588-1.12,0.588c-0.479,0-0.885-0.225-1.222-0.674c-0.336-0.449-0.504-0.989-0.504-1.617
					c0-0.713,0.187-1.29,0.558-1.731c0.372-0.441,0.839-0.662,1.4-0.662c0.32,0,0.616,0.122,0.888,0.365v-1.684
					c0-0.273-0.027-0.453-0.083-0.537c-0.055-0.084-0.183-0.14-0.381-0.167c-0.045-0.007-0.067-0.05-0.067-0.129
					c0-0.09,0.022-0.135,0.067-0.135c0.261-0.074,0.486-0.163,0.678-0.268s0.32-0.198,0.387-0.279
					c0.028-0.034,0.057-0.051,0.088-0.051c0.078,0,0.116,0.027,0.116,0.081c-0.044,0.736-0.065,1.324-0.065,1.763v4.463
					c0,0.233,0.027,0.389,0.082,0.468c0.056,0.08,0.183,0.136,0.382,0.17C44.016,16.764,44.038,16.809,44.038,16.899z
					 M42.769,16.358v-2.6c0-0.176-0.084-0.342-0.251-0.497s-0.349-0.233-0.545-0.233c-0.808,0-1.212,0.694-1.212,2.081
					c0,0.549,0.098,1.004,0.291,1.366c0.193,0.362,0.447,0.543,0.763,0.543c0.18,0,0.343-0.05,0.49-0.15
					C42.45,16.768,42.605,16.598,42.769,16.358z"/>
			</g>
		</g>
		<g>
			<g>
				<path fill="#FFFFFF" d="M18.209,10.763V9.185h0.549c0.138,0,0.238,0.014,0.301,0.042c0.062,0.028,0.112,0.079,0.15,0.151
					c0.037,0.072,0.057,0.155,0.057,0.249c0,0.119-0.029,0.216-0.086,0.293c-0.057,0.078-0.143,0.125-0.256,0.146
					c0.057,0.04,0.104,0.084,0.14,0.132c0.037,0.048,0.087,0.133,0.148,0.256l0.158,0.308h-0.312l-0.188-0.344
					c-0.067-0.122-0.113-0.2-0.138-0.232c-0.025-0.031-0.051-0.054-0.079-0.065c-0.027-0.012-0.071-0.018-0.131-0.018H18.47v0.659
					H18.209z M18.47,9.852h0.193c0.125,0,0.203-0.006,0.234-0.019c0.03-0.014,0.055-0.036,0.072-0.067
					c0.018-0.032,0.026-0.071,0.026-0.119c0-0.053-0.011-0.096-0.034-0.129c-0.023-0.032-0.057-0.053-0.099-0.062
					c-0.021-0.004-0.084-0.005-0.189-0.005H18.47V9.852z"/>
			</g>
			<g>
				<path fill="#FFFFFF" d="M19.511,10.763V9.185h0.957v0.267h-0.696v0.35h0.647v0.266h-0.647v0.429h0.722v0.266H19.511z"/>
			</g>
			<g>
				<path fill="#FFFFFF" d="M20.647,10.25l0.254-0.03c0.016,0.104,0.046,0.18,0.093,0.229c0.047,0.048,0.11,0.073,0.189,0.073
					c0.083,0,0.146-0.022,0.189-0.065c0.042-0.043,0.063-0.094,0.063-0.152c0-0.037-0.009-0.069-0.026-0.096
					c-0.019-0.025-0.05-0.048-0.095-0.068c-0.03-0.013-0.1-0.036-0.208-0.069c-0.14-0.042-0.237-0.094-0.294-0.156
					c-0.08-0.086-0.119-0.193-0.119-0.317c0-0.08,0.019-0.156,0.056-0.226c0.037-0.07,0.091-0.123,0.161-0.16
					c0.07-0.036,0.155-0.054,0.254-0.054c0.163,0,0.284,0.043,0.366,0.13c0.082,0.087,0.125,0.203,0.129,0.348L21.399,9.65
					c-0.011-0.081-0.035-0.139-0.071-0.175c-0.037-0.035-0.092-0.053-0.165-0.053c-0.076,0-0.135,0.019-0.178,0.057
					c-0.028,0.024-0.042,0.057-0.042,0.098c0,0.037,0.013,0.069,0.039,0.096c0.032,0.034,0.112,0.069,0.239,0.105
					c0.127,0.037,0.221,0.075,0.281,0.114c0.062,0.039,0.108,0.092,0.143,0.16c0.035,0.068,0.052,0.152,0.052,0.251
					c0,0.09-0.021,0.175-0.062,0.254c-0.042,0.079-0.1,0.138-0.175,0.176s-0.169,0.057-0.28,0.057c-0.164,0-0.289-0.046-0.377-0.138
					C20.717,10.56,20.665,10.426,20.647,10.25z"/>
			</g>
			<g>
				<path fill="#FFFFFF" d="M22.207,10.763V9.452h-0.383V9.185h1.026v0.267h-0.383v1.311H22.207z"/>
			</g>
			<g>
				<path fill="#FFFFFF" d="M24.049,10.763h-0.284l-0.112-0.358h-0.516l-0.106,0.358h-0.277l0.504-1.578h0.275L24.049,10.763z
					 M23.568,10.138l-0.178-0.585l-0.174,0.585H23.568z"/>
			</g>
			<g>
				<path fill="#FFFFFF" d="M24.186,9.185h0.261v0.854c0,0.136,0.003,0.223,0.009,0.263c0.012,0.065,0.038,0.117,0.08,0.156
					s0.1,0.059,0.172,0.059c0.074,0,0.13-0.019,0.167-0.055c0.038-0.037,0.062-0.083,0.068-0.137
					c0.008-0.053,0.012-0.143,0.012-0.268V9.185h0.261v0.829c0,0.189-0.007,0.323-0.021,0.401c-0.014,0.078-0.04,0.144-0.077,0.198
					c-0.038,0.054-0.089,0.097-0.152,0.129c-0.063,0.032-0.146,0.047-0.249,0.047c-0.123,0-0.217-0.017-0.28-0.052
					c-0.063-0.035-0.113-0.08-0.15-0.135c-0.037-0.056-0.062-0.115-0.073-0.175c-0.018-0.09-0.025-0.224-0.025-0.4V9.185
					L24.186,9.185z"/>
			</g>
			<g>
				<path fill="#FFFFFF" d="M25.49,10.763V9.185h0.549c0.138,0,0.238,0.014,0.301,0.042c0.062,0.028,0.112,0.079,0.15,0.151
					c0.037,0.072,0.056,0.155,0.056,0.249c0,0.119-0.028,0.216-0.085,0.293c-0.058,0.078-0.143,0.125-0.256,0.146
					c0.057,0.04,0.103,0.084,0.14,0.132c0.036,0.048,0.086,0.133,0.148,0.256l0.158,0.308h-0.312l-0.188-0.344
					c-0.066-0.122-0.112-0.2-0.137-0.232c-0.025-0.031-0.052-0.054-0.079-0.065s-0.071-0.018-0.131-0.018H25.75v0.659H25.49z
					 M25.751,9.852h0.192c0.125,0,0.203-0.006,0.234-0.019c0.031-0.013,0.056-0.036,0.073-0.067
					c0.018-0.032,0.026-0.071,0.026-0.119c0-0.053-0.012-0.096-0.035-0.129c-0.023-0.032-0.056-0.053-0.098-0.062
					c-0.021-0.004-0.085-0.005-0.189-0.005h-0.204V9.852L25.751,9.852z"/>
			</g>
			<g>
				<path fill="#FFFFFF" d="M27.956,10.763h-0.283l-0.112-0.358h-0.517l-0.106,0.358H26.66l0.504-1.578h0.275L27.956,10.763z
					 M27.477,10.138l-0.179-0.585l-0.174,0.585H27.477z"/>
			</g>
			<g>
				<path fill="#FFFFFF" d="M28.097,10.763V9.185h0.254l0.528,1.053V9.185h0.242v1.578H28.86l-0.521-1.029v1.029H28.097z"/>
			</g>
			<g>
				<path fill="#FFFFFF" d="M29.688,10.763V9.452h-0.384V9.185h1.026v0.267h-0.382v1.311H29.688z"/>
			</g>
		</g>
		<g>
			<g>
				<path fill="#FFFFFF" d="M23.117,3.766c5.59,0,10.569,3.549,12.389,8.831c0.058,0.167,0.112,0.335,0.163,0.504
					c0,0,0.381-0.362,0.854-0.627c0.062-0.036-0.045-0.136-0.068-0.203c-1.906-5.532-7.157-9.507-13.337-9.507l0,0
					c-5.018,0-9.423,2.62-11.923,6.566c-0.083,0.133-0.083,0.133-0.244,0.401c0.758-0.071,1.091,0.135,1.091,0.135
					c0.047-0.075,0.096-0.148,0.144-0.222C14.622,5.958,18.689,3.766,23.117,3.766"/>
			</g>
		</g>
		<g>
			<g>
				<path fill="#FFFFFF" d="M23.117,4.617c5.228,0,9.882,3.318,11.584,8.257c0.14,0.405,0.239,0.821,0.354,1.233
					c0.048-0.298,0.261-0.604,0.261-0.604c-0.07-0.257-0.149-0.51-0.235-0.761c-1.71-4.962-6.42-8.527-11.963-8.527l0,0
					c-4.396,0-8.267,2.242-10.534,5.644l0.413,0.104C15.285,6.608,19.037,4.617,23.117,4.617"/>
			</g>
		</g>
		<g>
			<g>
				<g>
					<polyline fill="#FFFFFF" points="9.104,18.444 18.182,18.444 18.182,19.046 9.183,19.046 					"/>
				</g>
			</g>
			<g>
				<g>
					<polyline fill="#FFFFFF" points="9.391,20.098 18.182,20.098 18.182,19.496 9.263,19.496 					"/>
				</g>
			</g>
			<g>
				<g>
					<polyline fill="#FFFFFF" points="37.129,18.444 30.306,18.444 30.306,19.046 37.052,19.046 					"/>
				</g>
			</g>
			<g>
				<g>
					<polyline fill="#FFFFFF" points="36.971,19.496 30.306,19.496 30.306,20.098 36.844,20.098 					"/>
				</g>
			</g>
			<g>
				<g>
					<path fill="none" d="M9.391,20.098c-0.047-0.198-0.089-0.399-0.128-0.602"/>
				</g>
			</g>
			<g>
				<g>
					<path fill="none" d="M37.052,19.046c0.03-0.199,0.055-0.399,0.077-0.602"/>
				</g>
			</g>
			<g>
				<g>
					<path fill="none" d="M36.844,20.098c0.046-0.198,0.089-0.399,0.127-0.602"/>
				</g>
			</g>
			<g>
				<g>
					<path fill="none" d="M9.183,19.046c0.023,0.151,0.053,0.301,0.08,0.45"/>
				</g>
			</g>
			<g>
				<g>
					<path fill="none" d="M37.052,19.046c-0.023,0.151-0.053,0.301-0.081,0.45"/>
				</g>
			</g>
		</g>
		<g>
			<g>
				<path d="M34.998,13.877"/>
			</g>
		</g>
		<g>
			<g>
				<path fill="#FFFFFF" d="M19.244,20.182v-1.578h0.418c0.158,0,0.262,0.008,0.31,0.023c0.074,0.023,0.136,0.074,0.186,0.154
					c0.05,0.079,0.075,0.182,0.075,0.308c0,0.097-0.014,0.178-0.043,0.244c-0.029,0.065-0.065,0.117-0.109,0.155
					c-0.045,0.038-0.09,0.062-0.136,0.075c-0.062,0.015-0.152,0.022-0.271,0.022h-0.17v0.596H19.244L19.244,20.182z M19.504,18.871
					v0.446h0.143c0.104,0,0.172-0.008,0.206-0.023c0.035-0.018,0.062-0.043,0.082-0.078s0.029-0.076,0.029-0.123
					c0-0.058-0.014-0.104-0.042-0.143c-0.027-0.036-0.062-0.061-0.104-0.069c-0.031-0.007-0.094-0.011-0.188-0.011L19.504,18.871
					L19.504,18.871z"/>
			</g>
			<g>
				<path fill="#FFFFFF" d="M20.438,20.182v-1.578h0.261v1.578H20.438z"/>
			</g>
			<g>
				<path fill="#FFFFFF" d="M22.111,20.182h-0.283l-0.112-0.358h-0.517l-0.106,0.358h-0.276l0.503-1.578h0.275L22.111,20.182z
					 M21.632,19.557l-0.178-0.585l-0.175,0.585H21.632z"/>
			</g>
			<g>
				<path fill="#FFFFFF" d="M22.253,20.182v-1.578h0.253l0.528,1.054v-1.054h0.243v1.578h-0.263l-0.52-1.029v1.029H22.253z"/>
			</g>
			<g>
				<path fill="#FFFFFF" d="M23.499,19.401c0-0.16,0.021-0.295,0.06-0.404c0.029-0.08,0.069-0.152,0.12-0.216
					c0.051-0.064,0.106-0.112,0.167-0.143c0.081-0.041,0.173-0.062,0.278-0.062c0.19,0,0.343,0.072,0.457,0.216
					c0.113,0.145,0.171,0.346,0.171,0.602s-0.057,0.455-0.17,0.599s-0.265,0.216-0.455,0.216c-0.191,0-0.344-0.072-0.457-0.215
					S23.499,19.653,23.499,19.401z M23.769,19.392c0,0.179,0.033,0.313,0.101,0.406c0.068,0.093,0.153,0.138,0.258,0.138
					c0.104,0,0.188-0.046,0.255-0.137c0.067-0.092,0.101-0.229,0.101-0.412c0-0.181-0.033-0.316-0.098-0.405
					s-0.15-0.133-0.258-0.133c-0.108,0-0.194,0.045-0.26,0.135C23.801,19.073,23.769,19.209,23.769,19.392z"/>
			</g>
			<g>
				<path fill="#FFFFFF" d="M24.926,19.761v-0.303h0.485v0.303H24.926z"/>
			</g>
			<g>
				<path fill="#FFFFFF" d="M25.557,18.604h0.517c0.102,0,0.178,0.004,0.229,0.016c0.05,0.011,0.095,0.031,0.134,0.064
					c0.04,0.033,0.073,0.077,0.1,0.132c0.026,0.056,0.04,0.116,0.04,0.185c0,0.073-0.017,0.143-0.05,0.204
					c-0.032,0.062-0.076,0.107-0.132,0.139c0.078,0.028,0.139,0.075,0.182,0.143c0.042,0.067,0.062,0.146,0.062,0.238
					c0,0.072-0.013,0.142-0.041,0.21c-0.027,0.067-0.064,0.121-0.111,0.161c-0.047,0.041-0.105,0.066-0.175,0.076
					c-0.044,0.006-0.148,0.009-0.314,0.011h-0.439V18.604L25.557,18.604z M25.817,18.866v0.364h0.171
					c0.102,0,0.164-0.001,0.189-0.005c0.044-0.007,0.08-0.024,0.105-0.057c0.024-0.031,0.038-0.072,0.038-0.123
					c0-0.049-0.012-0.089-0.034-0.118c-0.021-0.031-0.054-0.05-0.097-0.056c-0.026-0.004-0.101-0.006-0.224-0.006H25.817
					L25.817,18.866z M25.817,19.493v0.422h0.241c0.094,0,0.154-0.003,0.179-0.01c0.039-0.008,0.07-0.029,0.095-0.062
					s0.036-0.079,0.036-0.134c0-0.048-0.009-0.088-0.027-0.121c-0.02-0.033-0.047-0.057-0.082-0.072s-0.112-0.022-0.23-0.022H25.817
					z"/>
			</g>
			<g>
				<path fill="#FFFFFF" d="M28.022,20.182h-0.284l-0.112-0.358H27.11l-0.106,0.358h-0.277l0.504-1.578h0.275L28.022,20.182z
					 M27.543,19.557l-0.179-0.585l-0.174,0.585H27.543z"/>
			</g>
			<g>
				<path fill="#FFFFFF" d="M28.162,20.182v-1.578h0.548c0.139,0,0.238,0.014,0.301,0.043c0.062,0.028,0.112,0.078,0.15,0.15
					c0.037,0.073,0.056,0.155,0.056,0.249c0,0.118-0.028,0.216-0.085,0.293c-0.058,0.077-0.142,0.126-0.255,0.146
					c0.056,0.041,0.103,0.085,0.14,0.133c0.036,0.049,0.086,0.134,0.147,0.256l0.158,0.309H29.01l-0.188-0.344
					c-0.067-0.122-0.113-0.2-0.138-0.231c-0.024-0.032-0.051-0.055-0.079-0.066c-0.027-0.012-0.07-0.018-0.131-0.018h-0.053v0.659
					H28.162L28.162,20.182z M28.422,19.271h0.193c0.125,0,0.203-0.007,0.234-0.02s0.056-0.035,0.073-0.066
					c0.017-0.031,0.026-0.071,0.026-0.118c0-0.053-0.012-0.096-0.035-0.129s-0.056-0.054-0.099-0.062
					c-0.021-0.004-0.084-0.006-0.189-0.006h-0.204V19.271L28.422,19.271z"/>
			</g>
		</g>
		<g>
			<g>
				<defs>
					<circle id="SVGID_1_" cx="23.076" cy="17" r="14.261"/>
				</defs>
				<clipPath id="SVGID_2_">
					<use xlink:href="#SVGID_1_"  overflow="visible"/>
				</clipPath>
				<g clip-path="url(#SVGID_2_)">
					<g>
						<polygon fill="#FFFFFF" points="22.691,25.426 17.682,21.885 16.812,21.885 21.823,25.426 						"/>
					</g>
				</g>
			</g>
			<g>
				<defs>
					<circle id="SVGID_3_" cx="23.076" cy="17" r="14.261"/>
				</defs>
				<clipPath id="SVGID_4_">
					<use xlink:href="#SVGID_3_"  overflow="visible"/>
				</clipPath>
				<g clip-path="url(#SVGID_4_)">
					<g>
						<polygon fill="#FFFFFF" points="24.828,25.426 19.819,21.885 18.95,21.885 23.961,25.426 						"/>
					</g>
				</g>
			</g>
			<g>
				<defs>
					<circle id="SVGID_5_" cx="23.076" cy="17" r="14.261"/>
				</defs>
				<clipPath id="SVGID_6_">
					<use xlink:href="#SVGID_5_"  overflow="visible"/>
				</clipPath>
				<g clip-path="url(#SVGID_6_)">
					<g>
						<polygon fill="#FFFFFF" points="26.966,25.426 21.956,21.885 21.088,21.885 26.098,25.426 						"/>
					</g>
				</g>
			</g>
			<g>
				<defs>
					<circle id="SVGID_7_" cx="23.076" cy="17" r="14.261"/>
				</defs>
				<clipPath id="SVGID_8_">
					<use xlink:href="#SVGID_7_"  overflow="visible"/>
				</clipPath>
				<g clip-path="url(#SVGID_8_)">
					<g>
						<polygon fill="#FFFFFF" points="31.375,25.426 26.365,21.885 25.496,21.885 30.507,25.426 						"/>
					</g>
				</g>
			</g>
			<g>
				<defs>
					<circle id="SVGID_9_" cx="23.076" cy="17" r="14.261"/>
				</defs>
				<clipPath id="SVGID_10_">
					<use xlink:href="#SVGID_9_"  overflow="visible"/>
				</clipPath>
				<g clip-path="url(#SVGID_10_)">
					<g>
						<polygon fill="#FFFFFF" points="33.639,25.426 28.629,21.885 27.761,21.885 32.77,25.426 						"/>
					</g>
				</g>
			</g>
			<g>
				<defs>
					<circle id="SVGID_11_" cx="23.076" cy="17" r="14.261"/>
				</defs>
				<clipPath id="SVGID_12_">
					<use xlink:href="#SVGID_11_"  overflow="visible"/>
				</clipPath>
				<g clip-path="url(#SVGID_12_)">
					<g>
						<polygon fill="#FFFFFF" points="37.938,25.426 32.928,21.885 32.06,21.885 37.069,25.426 						"/>
					</g>
				</g>
			</g>
			<g>
				<defs>
					<circle id="SVGID_13_" cx="23.076" cy="17" r="14.261"/>
				</defs>
				<clipPath id="SVGID_14_">
					<use xlink:href="#SVGID_13_"  overflow="visible"/>
				</clipPath>
				<g clip-path="url(#SVGID_14_)">
					<g>
						<polygon fill="#FFFFFF" points="18.182,25.426 13.173,21.885 12.304,21.885 17.314,25.426 						"/>
					</g>
				</g>
			</g>
			<g>
				<defs>
					<circle id="SVGID_15_" cx="23.076" cy="17" r="14.261"/>
				</defs>
				<clipPath id="SVGID_16_">
					<use xlink:href="#SVGID_15_"  overflow="visible"/>
				</clipPath>
				<g clip-path="url(#SVGID_16_)">
					<g>
						<polygon fill="#FFFFFF" points="15.521,25.426 10.513,21.885 9.644,21.885 14.653,25.426 						"/>
					</g>
				</g>
			</g>
			<g>
				<defs>
					<circle id="SVGID_17_" cx="23.076" cy="17" r="14.261"/>
				</defs>
				<clipPath id="SVGID_18_">
					<use xlink:href="#SVGID_17_"  overflow="visible"/>
				</clipPath>
				<g clip-path="url(#SVGID_18_)">
					<g>
						<polygon fill="#FFFFFF" points="15.522,26.61 14.751,26.561 9.49,22.953 8.021,22.953 16.899,29.232 15.978,32.097 
							17.757,32.271 18.77,28.853 						"/>
					</g>
				</g>
			</g>
			<g>
				<defs>
					<circle id="SVGID_19_" cx="23.076" cy="17" r="14.261"/>
				</defs>
				<clipPath id="SVGID_20_">
					<use xlink:href="#SVGID_19_"  overflow="visible"/>
				</clipPath>
				<g clip-path="url(#SVGID_20_)">
					<g>
						<polygon fill="#FFFFFF" points="22.718,26.61 21.946,26.561 16.687,22.953 15.217,22.953 23.493,28.748 22.571,31.611 
							24.952,32.271 25.966,28.853 						"/>
					</g>
				</g>
			</g>
			<g>
				<defs>
					<circle id="SVGID_21_" cx="23.076" cy="17" r="14.261"/>
				</defs>
				<clipPath id="SVGID_22_">
					<use xlink:href="#SVGID_21_"  overflow="visible"/>
				</clipPath>
				<g clip-path="url(#SVGID_22_)">
					<g>
						<polygon fill="#FFFFFF" points="31.253,26.61 30.481,26.561 25.221,22.953 23.752,22.953 32.521,29.074 31.599,31.938 
							33.487,32.271 34.501,28.853 						"/>
					</g>
				</g>
			</g>
			<g>
				<defs>
					<circle id="SVGID_23_" cx="23.076" cy="17" r="14.261"/>
				</defs>
				<clipPath id="SVGID_24_">
					<use xlink:href="#SVGID_23_"  overflow="visible"/>
				</clipPath>
				<g clip-path="url(#SVGID_24_)">
					<g>
						<polygon fill="#FFFFFF" points="37.659,26.61 36.888,26.561 31.627,22.953 30.448,22.953 33.872,25.426 33.905,25.643 
							38.926,29.074 38.005,31.938 39.894,32.271 40.906,28.853 						"/>
					</g>
				</g>
			</g>
			<g>
				<defs>
					<circle id="SVGID_25_" cx="23.076" cy="17" r="14.261"/>
				</defs>
				<clipPath id="SVGID_26_">
					<use xlink:href="#SVGID_25_"  overflow="visible"/>
				</clipPath>
				<g clip-path="url(#SVGID_26_)">
					<g>
						<polygon fill="#FFFFFF" points="18.282,25.433 17.979,26.636 21.295,28.95 20.411,31.696 22.19,31.871 23.203,28.831 						
							"/>
					</g>
				</g>
			</g>
			<g>
				<defs>
					<circle id="SVGID_27_" cx="23.076" cy="17" r="14.261"/>
				</defs>
				<clipPath id="SVGID_28_">
					<use xlink:href="#SVGID_27_"  overflow="visible"/>
				</clipPath>
				<g clip-path="url(#SVGID_28_)">
					<g>
						<polygon fill="#FFFFFF" points="15.702,25.426 15.571,26.322 19.143,28.707 18.2,31.896 19.979,32.071 20.991,29.032 						
							"/>
					</g>
				</g>
			</g>
			<g>
				<defs>
					<circle id="SVGID_29_" cx="23.076" cy="17" r="14.261"/>
				</defs>
				<clipPath id="SVGID_30_">
					<use xlink:href="#SVGID_29_"  overflow="visible"/>
				</clipPath>
				<g clip-path="url(#SVGID_30_)">
					<g>
						<polygon fill="#FFFFFF" points="11.265,25.625 11.134,26.522 14.704,28.907 13.763,32.097 15.541,32.271 16.554,29.232 						
							"/>
					</g>
				</g>
			</g>
			<g>
				<defs>
					<circle id="SVGID_31_" cx="23.076" cy="17" r="14.261"/>
				</defs>
				<clipPath id="SVGID_32_">
					<use xlink:href="#SVGID_31_"  overflow="visible"/>
				</clipPath>
				<g clip-path="url(#SVGID_32_)">
					<g>
						<polygon fill="#FFFFFF" points="22.822,25.426 22.691,26.322 26.263,28.707 25.32,31.896 27.099,32.071 28.112,28.953 						
							"/>
					</g>
				</g>
			</g>
			<g>
				<defs>
					<circle id="SVGID_33_" cx="23.076" cy="17" r="14.261"/>
				</defs>
				<clipPath id="SVGID_34_">
					<use xlink:href="#SVGID_33_"  overflow="visible"/>
				</clipPath>
				<g clip-path="url(#SVGID_34_)">
					<g>
						<polygon fill="#FFFFFF" points="31.44,25.509 31.309,26.406 34.729,28.79 33.787,31.979 35.565,32.155 36.61,28.999 						"/>
					</g>
				</g>
			</g>
			<g>
				<defs>
					<circle id="SVGID_35_" cx="23.076" cy="17" r="14.261"/>
				</defs>
				<clipPath id="SVGID_36_">
					<use xlink:href="#SVGID_35_"  overflow="visible"/>
				</clipPath>
				<g clip-path="url(#SVGID_36_)">
					<g>
						<polygon fill="#FFFFFF" points="33.639,25.726 33.507,26.623 36.808,28.907 35.866,32.097 37.645,32.271 38.658,29.152 						
							"/>
					</g>
				</g>
			</g>
			<g>
				<defs>
					<circle id="SVGID_37_" cx="23.076" cy="17" r="14.261"/>
				</defs>
				<clipPath id="SVGID_38_">
					<use xlink:href="#SVGID_37_"  overflow="visible"/>
				</clipPath>
				<g clip-path="url(#SVGID_38_)">
					<g>
						<polygon fill="#FFFFFF" points="24.868,25.426 24.736,26.448 28.377,28.89 27.366,31.896 29.145,32.071 30.158,29.032 						
							"/>
					</g>
				</g>
			</g>
			<g>
				<defs>
					<circle id="SVGID_39_" cx="23.076" cy="17" r="14.261"/>
				</defs>
				<clipPath id="SVGID_40_">
					<use xlink:href="#SVGID_39_"  overflow="visible"/>
				</clipPath>
				<g clip-path="url(#SVGID_40_)">
					<g>
						<polygon fill="#FFFFFF" points="26.955,25.509 26.823,26.531 30.464,28.974 29.453,31.979 31.231,32.155 32.245,29.115 						
							"/>
					</g>
				</g>
			</g>
		</g>
	</g>
</g>
</svg>
