<?xml version="1.0" encoding="utf-8"?>
<!-- Generator: Adobe Illustrator 16.0.0, SVG Export Plug-In . SVG Version: 6.00 Build 0)  -->
<!DOCTYPE svg PUBLIC "-//W3C//DTD SVG 1.1//EN" "http://www.w3.org/Graphics/SVG/1.1/DTD/svg11.dtd">
<svg version="1.1" id="Layer_1" xmlns="http://www.w3.org/2000/svg" xmlns:xlink="http://www.w3.org/1999/xlink" x="0px" y="0px"
	 width="43.25px" height="34px" viewBox="0 0 43.25 34" enable-background="new 0 0 43.25 34" xml:space="preserve">
<g>
	<g>
		<defs>
			<path id="SVGID_1_" d="M20.627,2c11.459,0,21.748-5.701,21.748,5.757c0,11.459-9.289,20.748-20.748,20.748
				S0.879,19.216,0.879,7.757C0.879-3.701,9.168,2,20.627,2z"/>
		</defs>
		<clipPath id="SVGID_2_">
			<use xlink:href="#SVGID_1_"  overflow="visible"/>
		</clipPath>
		<polygon clip-path="url(#SVGID_2_)" fill="#FFFFFF" points="24.438,14.161 12.663,5.84 10.622,5.84 22.396,14.161 		"/>
	</g>
	<g>
		<defs>
			<path id="SVGID_3_" d="M20.627,2c11.459,0,21.748-5.701,21.748,5.757c0,11.459-9.289,20.748-20.748,20.748
				S0.879,19.216,0.879,7.757C0.879-3.701,9.168,2,20.627,2z"/>
		</defs>
		<clipPath id="SVGID_4_">
			<use xlink:href="#SVGID_3_"  overflow="visible"/>
		</clipPath>
		<polygon clip-path="url(#SVGID_4_)" fill="#FFFFFF" points="29.461,14.161 17.688,5.84 15.646,5.84 27.42,14.161 		"/>
	</g>
	<g>
		<defs>
			<path id="SVGID_5_" d="M20.627,2c11.459,0,21.748-5.701,21.748,5.757c0,11.459-9.289,20.748-20.748,20.748
				S0.879,19.216,0.879,7.757C0.879-3.701,9.168,2,20.627,2z"/>
		</defs>
		<clipPath id="SVGID_6_">
			<use xlink:href="#SVGID_5_"  overflow="visible"/>
		</clipPath>
		<polygon clip-path="url(#SVGID_6_)" fill="#FFFFFF" points="34.482,14.161 22.711,5.84 20.67,5.84 32.441,14.161 		"/>
	</g>
	<g>
		<defs>
			<path id="SVGID_7_" d="M20.627,2c11.459,0,21.748-5.701,21.748,5.757c0,11.459-9.289,20.748-20.748,20.748
				S0.879,19.216,0.879,7.757C0.879-3.701,9.168,2,20.627,2z"/>
		</defs>
		<clipPath id="SVGID_8_">
			<use xlink:href="#SVGID_7_"  overflow="visible"/>
		</clipPath>
		<polygon clip-path="url(#SVGID_8_)" fill="#FFFFFF" points="44.846,14.161 33.072,5.84 31.031,5.84 42.807,14.161 		"/>
	</g>
	<g>
		<defs>
			<path id="SVGID_9_" d="M20.627,2c11.459,0,21.748-5.701,21.748,5.757c0,11.459-9.289,20.748-20.748,20.748
				S0.879,19.216,0.879,7.757C0.879-3.701,9.168,2,20.627,2z"/>
		</defs>
		<clipPath id="SVGID_10_">
			<use xlink:href="#SVGID_9_"  overflow="visible"/>
		</clipPath>
		<polygon clip-path="url(#SVGID_10_)" fill="#FFFFFF" points="50.166,14.161 38.391,5.84 36.352,5.84 48.125,14.161 		"/>
	</g>
	<g>
		<defs>
			<path id="SVGID_11_" d="M20.627,2c11.459,0,21.748-5.701,21.748,5.757c0,11.459-9.289,20.748-20.748,20.748
				S0.879,19.216,0.879,7.757C0.879-3.701,9.168,2,20.627,2z"/>
		</defs>
		<clipPath id="SVGID_12_">
			<use xlink:href="#SVGID_11_"  overflow="visible"/>
		</clipPath>
		<polygon clip-path="url(#SVGID_12_)" fill="#FFFFFF" points="60.268,14.161 48.498,5.84 46.454,5.84 58.23,14.161 		"/>
	</g>
	<g>
		<defs>
			<path id="SVGID_13_" d="M20.627,2c11.459,0,21.748-5.701,21.748,5.757c0,11.459-9.289,20.748-20.748,20.748
				S0.879,19.216,0.879,7.757C0.879-3.701,9.168,2,20.627,2z"/>
		</defs>
		<clipPath id="SVGID_14_">
			<use xlink:href="#SVGID_13_"  overflow="visible"/>
		</clipPath>
		<polygon clip-path="url(#SVGID_14_)" fill="#FFFFFF" points="13.84,14.161 2.066,5.84 0.025,5.84 11.8,14.161 		"/>
	</g>
	<g>
		<defs>
			<path id="SVGID_15_" d="M20.627,2c11.459,0,21.748-5.701,21.748,5.757c0,11.459-9.289,20.748-20.748,20.748
				S0.879,19.216,0.879,7.757C0.879-3.701,9.168,2,20.627,2z"/>
		</defs>
		<clipPath id="SVGID_16_">
			<use xlink:href="#SVGID_15_"  overflow="visible"/>
		</clipPath>
		<polygon clip-path="url(#SVGID_16_)" fill="#FFFFFF" points="7.587,14.161 -4.186,5.84 -6.227,5.84 5.547,14.161 		"/>
	</g>
	<g>
		<defs>
			<path id="SVGID_17_" d="M21.627,2c11.459,0,20.748-5.701,20.748,5.757c0,11.459-9.289,20.748-20.748,20.748
				S0.879,19.216,0.879,7.757C0.879-3.701,10.168,2,21.627,2z"/>
		</defs>
		<clipPath id="SVGID_18_">
			<use xlink:href="#SVGID_17_"  overflow="visible"/>
		</clipPath>
		<polygon clip-path="url(#SVGID_18_)" fill="#FFFFFF" points="7.588,16.948 5.775,16.829 -6.588,8.351 -10.041,8.351 
			10.826,23.108 8.659,29.84 12.839,30.252 15.221,22.214 		"/>
	</g>
	<g>
		<defs>
			<path id="SVGID_19_" d="M21.627,2c11.459,0,20.748-5.701,20.748,5.757c0,11.459-9.289,20.748-20.748,20.748
				S0.879,19.216,0.879,7.757C0.879-3.701,10.168,2,21.627,2z"/>
		</defs>
		<clipPath id="SVGID_20_">
			<use xlink:href="#SVGID_19_"  overflow="visible"/>
		</clipPath>
		<polygon clip-path="url(#SVGID_20_)" fill="#FFFFFF" points="24.5,16.948 22.688,16.829 10.324,8.351 6.87,8.351 26.322,21.972 
			24.154,28.7 29.753,30.252 32.133,22.214 		"/>
	</g>
	<g>
		<defs>
			<path id="SVGID_21_" d="M21.627,2c11.459,0,20.748-5.701,20.748,5.757c0,11.459-9.289,20.748-20.748,20.748
				S0.879,19.216,0.879,7.757C0.879-3.701,10.168,2,21.627,2z"/>
		</defs>
		<clipPath id="SVGID_22_">
			<use xlink:href="#SVGID_21_"  overflow="visible"/>
		</clipPath>
		<polygon clip-path="url(#SVGID_22_)" fill="#FFFFFF" points="44.559,16.948 42.747,16.829 30.384,8.351 26.93,8.351 
			47.537,22.735 45.371,29.468 49.811,30.252 52.191,22.214 		"/>
	</g>
	<g>
		<defs>
			<path id="SVGID_23_" d="M21.627,2c11.459,0,20.748-5.701,20.748,5.757c0,11.459-9.289,20.748-20.748,20.748
				S0.879,19.216,0.879,7.757C0.879-3.701,10.168,2,21.627,2z"/>
		</defs>
		<clipPath id="SVGID_24_">
			<use xlink:href="#SVGID_23_"  overflow="visible"/>
		</clipPath>
		<polygon clip-path="url(#SVGID_24_)" fill="#FFFFFF" points="59.617,16.948 57.803,16.829 45.439,8.351 42.669,8.351 
			50.715,14.161 50.793,14.673 62.596,22.735 60.426,29.468 64.867,30.252 67.25,22.214 		"/>
	</g>
	<g>
		<defs>
			<path id="SVGID_25_" d="M21.627,2c11.459,0,20.748-5.701,20.748,5.757c0,11.459-9.289,20.748-20.748,20.748
				S0.879,19.216,0.879,7.757C0.879-3.701,10.168,2,21.627,2z"/>
		</defs>
		<clipPath id="SVGID_26_">
			<use xlink:href="#SVGID_25_"  overflow="visible"/>
		</clipPath>
		<polygon clip-path="url(#SVGID_26_)" fill="#FFFFFF" points="14.076,14.18 13.363,17.006 21.156,22.446 19.08,28.897 
			23.261,29.31 25.641,22.166 		"/>
	</g>
	<g>
		<defs>
			<path id="SVGID_27_" d="M21.627,2c11.459,0,20.748-5.701,20.748,5.757c0,11.459-9.289,20.748-20.748,20.748
				S0.879,19.216,0.879,7.757C0.879-3.701,10.168,2,21.627,2z"/>
		</defs>
		<clipPath id="SVGID_28_">
			<use xlink:href="#SVGID_27_"  overflow="visible"/>
		</clipPath>
		<polygon clip-path="url(#SVGID_28_)" fill="#FFFFFF" points="8.012,14.161 7.704,16.271 16.098,21.875 13.883,29.368 
			18.062,29.78 20.443,22.636 		"/>
	</g>
	<g>
		<defs>
			<path id="SVGID_29_" d="M21.627,2c11.459,0,20.748-5.701,20.748,5.757c0,11.459-9.289,20.748-20.748,20.748
				S0.879,19.216,0.879,7.757C0.879-3.701,10.168,2,21.627,2z"/>
		</defs>
		<clipPath id="SVGID_30_">
			<use xlink:href="#SVGID_29_"  overflow="visible"/>
		</clipPath>
		<polygon clip-path="url(#SVGID_30_)" fill="#FFFFFF" points="-2.418,14.631 -2.727,16.739 5.668,22.345 3.453,29.84 7.634,30.252 
			10.015,23.108 		"/>
	</g>
	<g>
		<defs>
			<path id="SVGID_31_" d="M21.627,2c11.459,0,20.748-5.701,20.748,5.757c0,11.459-9.289,20.748-20.748,20.748
				S0.879,19.216,0.879,7.757C0.879-3.701,10.168,2,21.627,2z"/>
		</defs>
		<clipPath id="SVGID_32_">
			<use xlink:href="#SVGID_31_"  overflow="visible"/>
		</clipPath>
		<polygon clip-path="url(#SVGID_32_)" fill="#FFFFFF" points="24.746,14.161 24.438,16.271 32.832,21.875 30.615,29.368 
			34.795,29.78 37.18,22.45 		"/>
	</g>
	<g>
		<defs>
			<path id="SVGID_33_" d="M21.627,2c11.459,0,20.748-5.701,20.748,5.757c0,11.459-9.289,20.748-20.748,20.748
				S0.879,19.216,0.879,7.757C0.879-3.701,10.168,2,21.627,2z"/>
		</defs>
		<clipPath id="SVGID_34_">
			<use xlink:href="#SVGID_33_"  overflow="visible"/>
		</clipPath>
		<polygon clip-path="url(#SVGID_34_)" fill="#FFFFFF" points="45.002,14.358 44.691,16.466 52.73,22.069 50.516,29.565 
			54.695,29.978 57.15,22.56 		"/>
	</g>
	<g>
		<defs>
			<path id="SVGID_35_" d="M21.627,3c11.459,0,20.748-6.701,20.748,4.757c0,11.459-9.289,20.748-20.748,20.748
				S0.879,19.216,0.879,7.757C0.879-3.701,10.168,3,21.627,3z"/>
		</defs>
		<clipPath id="SVGID_36_">
			<use xlink:href="#SVGID_35_"  overflow="visible"/>
		</clipPath>
		<polygon clip-path="url(#SVGID_36_)" fill="#FFFFFF" points="50.166,14.866 49.857,16.976 57.615,22.345 55.402,29.84 
			59.582,30.252 61.965,22.923 		"/>
	</g>
	<g>
		<defs>
			<path id="SVGID_37_" d="M21.627,2c11.459,0,20.748-5.701,20.748,5.757c0,11.459-9.289,20.748-20.748,20.748
				S0.879,19.216,0.879,7.757C0.879-3.701,10.168,2,21.627,2z"/>
		</defs>
		<clipPath id="SVGID_38_">
			<use xlink:href="#SVGID_37_"  overflow="visible"/>
		</clipPath>
		<polygon clip-path="url(#SVGID_38_)" fill="#FFFFFF" points="29.555,14.161 29.245,16.563 37.801,22.305 35.426,29.368 
			39.605,29.78 41.984,22.636 		"/>
	</g>
	<g>
		<defs>
			<path id="SVGID_39_" d="M21.627,3c11.459,0,20.748-6.701,20.748,4.757c0,11.459-9.289,20.748-20.748,20.748
				S0.879,19.216,0.879,7.757C0.879-3.701,10.168,3,21.627,3z"/>
		</defs>
		<clipPath id="SVGID_40_">
			<use xlink:href="#SVGID_39_"  overflow="visible"/>
		</clipPath>
		<polygon clip-path="url(#SVGID_40_)" fill="#FFFFFF" points="34.461,14.358 34.148,16.761 42.707,22.5 40.329,29.565 
			44.509,29.978 46.893,22.835 		"/>
	</g>
</g>
</svg>
