<?xml version="1.0" encoding="utf-8"?>
<!-- Generator: Adobe Illustrator 16.0.0, SVG Export Plug-In . SVG Version: 6.00 Build 0)  -->
<!DOCTYPE svg PUBLIC "-//W3C//DTD SVG 1.1//EN" "http://www.w3.org/Graphics/SVG/1.1/DTD/svg11.dtd">
<svg version="1.1" id="Layer_1" xmlns="http://www.w3.org/2000/svg" xmlns:xlink="http://www.w3.org/1999/xlink" x="0px" y="0px"
	 width="34px" height="34px" viewBox="0 0 34 34" enable-background="new 0 0 34 34" xml:space="preserve">
<g>
	<g>
		<defs>
			<circle id="SVGID_1_" cx="17.123" cy="17" r="16.123"/>
		</defs>
		<clipPath id="SVGID_2_">
			<use xlink:href="#SVGID_1_"  overflow="visible"/>
		</clipPath>
		<g clip-path="url(#SVGID_2_)">
			<polygon fill="#FFFFFF" points="19.307,21.976 10.157,15.511 8.571,15.511 17.721,21.976 			"/>
			<polygon fill="#FFFFFF" points="23.21,21.976 14.061,15.511 12.475,15.511 21.625,21.976 			"/>
			<polygon fill="#FFFFFF" points="27.114,21.976 17.965,15.511 16.379,15.511 25.528,21.976 			"/>
			<polygon fill="#FFFFFF" points="35.166,21.976 26.017,15.511 24.431,15.511 33.581,21.976 			"/>
			<polygon fill="#FFFFFF" points="39.3,21.976 30.151,15.511 28.565,15.511 37.715,21.976 			"/>
			<polygon fill="#FFFFFF" points="47.151,21.976 38.003,15.511 36.416,15.511 45.566,21.976 			"/>
			<polygon fill="#FFFFFF" points="11.072,21.976 1.923,15.511 0.337,15.511 9.487,21.976 			"/>
			<polygon fill="#FFFFFF" points="6.213,21.976 -2.936,15.511 -4.522,15.511 4.628,21.976 			"/>
			<polygon fill="#FFFFFF" points="6.214,24.142 4.805,24.05 -4.802,17.462 -7.486,17.462 8.73,28.93 7.046,34.16 10.294,34.48 
				12.145,28.235 			"/>
			<polygon fill="#FFFFFF" points="19.356,24.142 17.947,24.05 8.34,17.462 5.656,17.462 20.771,28.046 19.088,33.275 23.437,34.48 
				25.287,28.235 			"/>
			<polygon fill="#FFFFFF" points="34.943,24.142 33.534,24.05 23.927,17.462 21.243,17.462 37.258,28.641 35.574,33.871 
				39.024,34.48 40.875,28.235 			"/>
			<polygon fill="#FFFFFF" points="46.644,24.142 45.234,24.05 35.627,17.462 33.475,17.462 39.727,21.976 39.787,22.374 
				48.958,28.641 47.274,33.871 50.724,34.48 52.575,28.235 			"/>
			<polygon fill="#FFFFFF" points="11.255,21.991 10.701,24.188 16.757,28.415 15.144,33.428 18.392,33.748 20.242,28.197 			"/>
			<polygon fill="#FFFFFF" points="6.543,21.976 6.303,23.615 12.826,27.97 11.105,33.794 14.353,34.114 16.204,28.563 			"/>
			<polygon fill="#FFFFFF" points="-1.562,22.342 -1.802,23.981 4.721,28.336 3,34.16 6.249,34.48 8.099,28.93 			"/>
			<polygon fill="#FFFFFF" points="19.547,21.976 19.307,23.615 25.829,27.97 24.108,33.794 27.356,34.114 29.208,28.419 			"/>
			<polygon fill="#FFFFFF" points="35.286,22.129 35.046,23.768 41.293,28.122 39.572,33.947 42.82,34.268 44.728,28.503 			"/>
			<polygon fill="#FFFFFF" points="39.301,22.525 39.061,24.164 45.089,28.336 43.368,34.16 46.616,34.48 48.468,28.785 			"/>
			<polygon fill="#FFFFFF" points="23.282,21.976 23.042,23.844 29.691,28.305 27.845,33.794 31.093,34.114 32.943,28.563 			"/>
			<polygon fill="#FFFFFF" points="27.095,22.129 26.854,23.997 33.504,28.457 31.656,33.947 34.904,34.268 36.755,28.717 			"/>
		</g>
	</g>
	<g>
		<g>
			<path fill="#FFFFFF" d="M17.17,2.038c6.32,0,11.949,4.012,14.006,9.984c0.065,0.189,0.126,0.379,0.184,0.57
				c0,0,0.432-0.409,0.965-0.709c0.071-0.04-0.051-0.153-0.077-0.23C30.094,5.399,24.156,0.905,17.17,0.905l0,0
				c-5.672,0-10.653,2.962-13.479,7.424c-0.094,0.15-0.094,0.15-0.276,0.453c0.857-0.081,1.233,0.153,1.233,0.153
				c0.054-0.084,0.107-0.168,0.163-0.25C7.567,4.517,12.165,2.038,17.17,2.038"/>
		</g>
	</g>
	<g>
		<g>
			<path fill="#FFFFFF" d="M17.17,3.001c5.91,0,11.172,3.751,13.096,9.335c0.158,0.458,0.271,0.928,0.399,1.395
				c0.055-0.336,0.295-0.683,0.295-0.683c-0.08-0.29-0.169-0.577-0.267-0.859c-1.933-5.609-7.258-9.64-13.524-9.64l0,0
				c-4.969,0-9.346,2.534-11.91,6.38l0.467,0.118C8.316,5.252,12.558,3.001,17.17,3.001"/>
		</g>
	</g>
	<g>
		<g>
			<path fill="#1D1D1B" d="M30.603,13.47"/>
		</g>
	</g>
	<path fill="#FFFFFF" d="M2.477,15.168C3.382,7.89,9.603,2.236,17.123,2.236c7.776,0,14.163,6.044,14.72,13.68l1.4,0.952
		c-0.071-8.843-7.26-15.991-16.12-15.991c-7.999,0-14.634,5.827-15.901,13.466c0,0-0.073,0.445-0.09,0.584
		c0.505,0.027,0.852,0.048,0.852,0.048L2.477,15.168z"/>
	<path fill="#FFFFFF" d="M3.435,15.798C4.045,8.781,9.95,3.256,17.123,3.256c6.957,0,12.72,5.197,13.618,11.913l0.742,0.504
		c-0.67-7.343-6.842-13.096-14.36-13.096c-7.417,0-13.523,5.599-14.331,12.8L3.435,15.798z"/>
</g>
</svg>
